<?xml version="1.0" standalone="no"?>
<!DOCTYPE svg PUBLIC "-//W3C//DTD SVG 20010904//EN" "http://www.w3.org/TR/2001/REC-SVG-20010904/DTD/svg10.dtd">
<svg version="1.0" xmlns="http://www.w3.org/2000/svg"
    width="700.000000pt" height="700.000000pt" viewBox="0 0 700.000000 700.000000"
    preserveAspectRatio="xMidYMid meet">
    <metadata> Created by potrace 1.14, written by Peter Selinger 2001-2017 </metadata>
    <g transform="translate(0.000000,700.000000) scale(0.100000,-0.100000)"
        fill="#000000" stroke="none">
        <path
            d="M1950 6185 c-125 -33 -219 -125 -256 -251 -16 -55 -17 -204 -18
-2404 -1 -1290 2 -2372 6 -2405 34 -299 400 -428 613 -217 47 47 85 110 100
167 5 17 10 482 11 1035 1 553 3 1010 3 1015 1 14 2181 14 2182 0 0 -5 2 -464
3 -1020 2 -946 3 -1013 20 -1060 87 -239 392 -319 581 -153 53 45 91 106 111
174 16 55 17 208 18 2419 1 1651 -2 2377 -10 2415 -46 234 -293 363 -506 263
-99 -47 -175 -135 -203 -238 -5 -16 -10 -484 -11 -1040 -1 -555 -3 -1012 -3
-1015 -1 -7 -2181 -7 -2182 0 0 3 -2 462 -3 1020 -2 658 -6 1026 -13 1045 -51
151 -181 253 -330 259 -37 2 -88 -2 -113 -9z" />
    </g>
</svg>